/* XPM */
static const char * pointPicker48_xpm[] = {
"48 48 155 2",
"  	c None",
". 	c #000000",
"+ 	c #FF0000",
"@ 	c #730000",
"# 	c #720202",
"$ 	c #720506",
"% 	c #720000",
"& 	c #712123",
"* 	c #6D6A71",
"= 	c #6B99A2",
"- 	c #6BA1AA",
"; 	c #6C848C",
"> 	c #6F494D",
", 	c #720A0A",
"' 	c #720F10",
") 	c #6E686D",
"! 	c #68C4CF",
"~ 	c #67D8E5",
"{ 	c #68D4E0",
"] 	c #68D3DF",
"^ 	c #68D5E2",
"/ 	c #67D8E4",
"( 	c #6AA0A9",
"_ 	c #702A2D",
": 	c #730101",
"< 	c #721011",
"[ 	c #6B878F",
"} 	c #67D5E1",
"| 	c #69D2DE",
"1 	c #78BBC5",
"2 	c #8CA0A9",
"3 	c #93969E",
"4 	c #89A4AD",
"5 	c #73C3CE",
"6 	c #68D6E2",
"7 	c #6AB0BA",
"8 	c #702A2C",
"9 	c #6E6166",
"0 	c #71C5D1",
"a 	c #A28289",
"b 	c #D53A3E",
"c 	c #EC1B1C",
"d 	c #F11414",
"e 	c #E91E1F",
"f 	c #BE5B60",
"g 	c #7AB9C4",
"h 	c #67D7E3",
"i 	c #6C98A2",
"j 	c #740404",
"k 	c #700000",
"l 	c #9F0000",
"m 	c #710F0F",
"n 	c #69B8C2",
"o 	c #78BDC8",
"p 	c #BA5F64",
"q 	c #F31011",
"r 	c #F70909",
"s 	c #A8787E",
"t 	c #68D1DE",
"u 	c #7ABAC5",
"v 	c #8F1113",
"w 	c #6F0000",
"x 	c #900000",
"y 	c #FB0000",
"z 	c #6F3D41",
"A 	c #78C0CB",
"B 	c #C0575C",
"C 	c #F70B0B",
"D 	c #FD0202",
"E 	c #FD0102",
"F 	c #C1565B",
"G 	c #6ECAD5",
"H 	c #A67F86",
"I 	c #C00808",
"J 	c #800000",
"K 	c #EE0000",
"L 	c #724347",
"M 	c #B46A70",
"N 	c #F70C0C",
"O 	c #F21213",
"P 	c #DE2D2F",
"Q 	c #FA0607",
"R 	c #FC0303",
"S 	c #B3686F",
"T 	c #88A6AF",
"U 	c #E02D30",
"V 	c #CD0707",
"W 	c #750000",
"X 	c #760000",
"Y 	c #710000",
"Z 	c #841D1F",
"` 	c #F11416",
" .	c #EE1617",
"..	c #B26B71",
"+.	c #C74D51",
"@.	c #FE0101",
"#.	c #EF1516",
"$.	c #A57D84",
"%.	c #C94B4E",
"&.	c #FD0505",
"*.	c #D90000",
"=.	c #740000",
"-.	c #810202",
";.	c #F50000",
">.	c #F40F0F",
",.	c #AF6F76",
"'.	c #7CB5C0",
").	c #D43B3F",
"!.	c #ED1819",
"~.	c #DA3335",
"{.	c #F90808",
"].	c #BB0000",
"^.	c #C60000",
"/.	c #FE0606",
"(.	c #BE595F",
"_.	c #71C4CF",
":.	c #72C5D0",
"<.	c #CD4549",
"[.	c #F80000",
"}.	c #880202",
"|.	c #8E0000",
"1.	c #8A0101",
"2.	c #C83336",
"3.	c #7FB2BD",
"4.	c #66D4E0",
"5.	c #6ACFDB",
"6.	c #F21011",
"7.	c #FB0404",
"8.	c #AB0D0E",
"9.	c #720101",
"0.	c #C40000",
"a.	c #770000",
"b.	c #7A2E30",
"c.	c #68D8E4",
"d.	c #67D5E2",
"e.	c #73C2CD",
"f.	c #AE7077",
"g.	c #E02C2F",
"h.	c #EE1D1F",
"i.	c #DD2123",
"j.	c #A61719",
"k.	c #760404",
"l.	c #A10000",
"m.	c #712122",
"n.	c #6C8289",
"o.	c #69BDC8",
"p.	c #68D1DD",
"q.	c #81A2AB",
"r.	c #895D63",
"s.	c #7D1D1E",
"t.	c #740303",
"u.	c #71292B",
"v.	c #702E31",
"w.	c #701618",
"x.	c #710101",
"                                                                                                ",
"                                                                                                ",
"                                                                                                ",
"                                                                                                ",
"                                                                                                ",
"            . .                                                                                 ",
"          . . .                                                                                 ",
"          . . .                                                                                 ",
"          . . .                                                                                 ",
"          . . .                                                             + +                 ",
"          . . .                                                           + + +                 ",
"          . . .                                                         + + + +                 ",
"          . . .                     @ @ @ @ @ @ @                       + + +                   ",
"          . . .                 @ @ @ @ # $ @ @ @ @                   + + +                     ",
"          . . .               @ @ % & * = - ; > , @ @ @             + + +                       ",
"          . . .             @ @ ' ) ! ~ { ] ^ / ( _ : @         + + + +                         ",
"          . . .           @ @ < [ } | 1 2 3 4 5 6 7 8 @ @     + + + +                           ",
"          . . .           @ @ 9 } 0 a b c d e f g h i j k l + + + +                             ",
"          . . .         @ @ m n o p q + + + + r s t u v w x y + +                               ",
"          . . .         @ @ z A B C + + D E + + F G H I k J K                                   ",
"          . . .         @ @ L M N + + O P Q + R S T U V W X                                     ",
"          . . .         @ Y Z ` + +  ...+.@.+ #.$.%.&.*.=.@                                     ",
"          . . .         @ Y -.;.+ >.,.'.).+ + !.~.{.+ ].Y @                                     ",
"          . . .           =.% ^./.(._.:.<.+ + D @.+ [.}.Y @                                     ",
"          . . .           |.% 1.2.3.4.5.$.6.+ + + 7.8.9.@                                       ",
"          . . .           0.a.@ b.7 c.d.e.f.g.h.i.j.k.@ @ @                                     ",
"          . . .         + [.l.Y @ m.n.o.p.G q.r.s.t.@ @ @ @ @                                   ",
"          . . .         + +   w @ @ % ' u.v.w.x.@ @ @ @ @ @ @ @ @                               ",
"          . . .         + +       @ @ @ @ @ @ @ @ @ @ @ @ @ @ @ @ @                             ",
"          . . .       + + +             @ @           @ @ @ @ @ @ @ @                           ",
"          . . .       + + +                             @ @ @ @ @ @ @ @                         ",
"          . . .       + +                                   @ @ @ @ @ @ @                       ",
"          . . .     + + +                                     @ @ @ @ @ @ @ @                   ",
"          . . .     + + +                                       @ @ @ @ @ @ @                   ",
"          . . .     + +                                             @ @ @ @ @                   ",
"          . . .     + +                                               @ @ @ @ @                 ",
"          . . .     + +                                                     @                   ",
"            . .                                                                                 ",
"            . .                                                                                 ",
"            . .                                                                                 ",
"            . . . . . . . . . . . . . . . . . . . . . . . . . . . . . . . . . . . .             ",
"            . . . . . . . . . . . . . . . . . . . . . . . . . . . . . . . . . . . .             ",
"                                                                                                ",
"                                                                                                ",
"                                                                                                ",
"                                                                                                ",
"                                                                                                ",
"                                                                                                "};
