/* XPM */
static const char * pointPicker64_xpm[] = {
"64 64 220 2",
"  	c None",
". 	c #000000",
"+ 	c #FF0000",
"@ 	c #730000",
"# 	c #720506",
"$ 	c #711213",
"% 	c #71191B",
"& 	c #710D0E",
"* 	c #720303",
"= 	c #720202",
"- 	c #712021",
"; 	c #6E6167",
"> 	c #6B9AA3",
", 	c #69B7C2",
"' 	c #69BCC7",
") 	c #69ACB6",
"! 	c #6C8992",
"~ 	c #6E4E52",
"{ 	c #711414",
"] 	c #720F10",
"^ 	c #6E6267",
"/ 	c #68B7C1",
"( 	c #68D5E1",
"_ 	c #68D3DF",
": 	c #68D2DE",
"< 	c #68D4E0",
"[ 	c #6AA5AE",
"} 	c #703A3E",
"| 	c #71181A",
"1 	c #6B8F97",
"2 	c #67D2DE",
"3 	c #67D3DF",
"4 	c #6ACFDB",
"5 	c #6EC9D5",
"6 	c #6FC7D2",
"7 	c #6FC8D4",
"8 	c #6BCEDA",
"9 	c #68C5D0",
"0 	c #6F4549",
"a 	c #721112",
"b 	c #6B929A",
"c 	c #6DCBD6",
"d 	c #82ADB7",
"e 	c #9D878F",
"f 	c #B2696F",
"g 	c #BB5D63",
"h 	c #B5666C",
"i 	c #9E868D",
"j 	c #7EB3BD",
"k 	c #6ACFDA",
"l 	c #68D2DF",
"m 	c #69C2CD",
"n 	c #6F393C",
"o 	c #720000",
"p 	c #730100",
"q 	c #6E585D",
"r 	c #78BBC6",
"s 	c #A47E85",
"t 	c #D33D41",
"u 	c #ED191A",
"v 	c #F70A0B",
"w 	c #FA0707",
"x 	c #F80A0A",
"y 	c #EB1A1B",
"z 	c #C1565B",
"A 	c #83ABB5",
"B 	c #69D1DD",
"C 	c #6C9AA3",
"D 	c #75090A",
"E 	c #AE0000",
"F 	c #710F10",
"G 	c #6AA9B3",
"H 	c #80B0BA",
"I 	c #B95F65",
"J 	c #EB1B1D",
"K 	c #FC0304",
"L 	c #F11213",
"M 	c #AF6F76",
"N 	c #70C6D1",
"O 	c #79B6C1",
"P 	c #8B1819",
"Q 	c #990000",
"R 	c #FA0000",
"S 	c #70373A",
"T 	c #68CCD8",
"U 	c #82ACB6",
"V 	c #C25459",
"W 	c #F21212",
"X 	c #FE0001",
"Y 	c #FC0303",
"Z 	c #CA484C",
"` 	c #7AB9C3",
" .	c #998F97",
"..	c #BA1314",
"+.	c #750000",
"@.	c #880000",
"#.	c #F10000",
"$.	c #7EB8C2",
"%.	c #C1555A",
"&.	c #F30F10",
"*.	c #FE0000",
"=.	c #FD0202",
"-.	c #F80809",
";.	c #FB0405",
">.	c #FD0203",
",.	c #CE4348",
"'.	c #79B9C3",
").	c #7AB8C3",
"!.	c #C74E53",
"~.	c #D90506",
"{.	c #7A0000",
"].	c #800000",
"^.	c #DE0000",
"/.	c #754C50",
"(.	c #F11314",
"_.	c #FA0606",
":.	c #E2272A",
"<.	c #D83537",
"[.	c #F8090A",
"}.	c #F90708",
"|.	c #BD5B60",
"1.	c #79B9C4",
"2.	c #AB737A",
"3.	c #F01617",
"4.	c #DB0A0A",
"5.	c #7E0000",
"6.	c #86272A",
"7.	c #E81D20",
"8.	c #FE0101",
"9.	c #F90707",
"0.	c #D7373A",
"a.	c #A57D85",
"b.	c #CE4347",
"c.	c #FC0404",
"d.	c #ED1719",
"e.	c #A47E86",
"f.	c #A0838A",
"g.	c #E42628",
"h.	c #EC0000",
"i.	c #8D0809",
"j.	c #F80303",
"k.	c #FB0506",
"l.	c #D83639",
"m.	c #92969F",
"n.	c #8AA3AC",
"o.	c #DE2D2F",
"p.	c #FD0101",
"q.	c #E22729",
"r.	c #BB5E63",
"s.	c #E2282A",
"t.	c #7D0000",
"u.	c #E50000",
"v.	c #E1282B",
"w.	c #998C94",
"x.	c #6BCDD9",
"y.	c #8BA1A9",
"z.	c #E32629",
"A.	c #F50F0F",
"B.	c #F21112",
"C.	c #FC0203",
"D.	c #B20000",
"E.	c #790000",
"F.	c #B10000",
"G.	c #FF0101",
"H.	c #ED1819",
"I.	c #AB757B",
"J.	c #83ACB6",
"K.	c #D83638",
"L.	c #F00000",
"M.	c #870202",
"N.	c #A00000",
"O.	c #810000",
"P.	c #C0585D",
"Q.	c #79BAC5",
"R.	c #72C2CD",
"S.	c #B76369",
"T.	c #F40D0E",
"U.	c #FC0302",
"V.	c #A70F10",
"W.	c #730101",
"X.	c #890C0D",
"Y.	c #848B93",
"Z.	c #68D4E1",
"`.	c #69D0DD",
" +	c #87A6AF",
".+	c #CA4A4E",
"++	c #F31011",
"@+	c #EF1213",
"#+	c #AC1719",
"$+	c #750505",
"%+	c #FC0000",
"&+	c #740000",
"*+	c #712628",
"=+	c #6A9AA2",
"-+	c #85A9B3",
";+	c #AF6E74",
">+	c #CE4549",
",+	c #D73A3D",
"'+	c #C03C3F",
")+	c #8F2629",
"!+	c #730606",
"~+	c #F40000",
"{+	c #980000",
"]+	c #6E646A",
"^+	c #6AA6B0",
"/+	c #68C1CC",
"(+	c #68CFDB",
"_+	c #69CFDB",
":+	c #6FBEC9",
"<+	c #7B959E",
"[+	c #7B565B",
"}+	c #741B1C",
"|+	c #710000",
"1+	c #720101",
"2+	c #710C0D",
"3+	c #711F21",
"4+	c #703739",
"5+	c #6F3C3F",
"6+	c #71292C",
"7+	c #711112",
"                                                                                                                                ",
"                                                                                                                                ",
"                                                                                                                                ",
"                                                                                                                                ",
"                                                                                                                                ",
"                                                                                                                                ",
"                .                                                                                                               ",
"              . . .                                                                                                             ",
"              . . .                                                                                                             ",
"              . . .                                                                                                             ",
"              . . .                                                                                                             ",
"              . . .                                                                                     +                       ",
"              . . .                                                                                   + + +                     ",
"              . . .                                                                                 + + + +                     ",
"              . . .                                                                               + + + +                       ",
"              . . .                                                                             + + + + +                       ",
"              . . .                             @ @ @ @ @ @ @ @ @                               + + + +                         ",
"              . . .                         @ @ @ @ @ @ @ @ @ @ @ @ @                         + + + +                           ",
"              . . .                       @ @ @ @ @ # $ % & * @ @ @ @ @                     + + + +                             ",
"              . . .                     @ @ @ = - ; > , ' ) ! ~ { @ @ @ @                 + + + +                               ",
"              . . .                   @ @ @ ] ^ / ( _ : : : < < [ } = @ @ @           + + + + +                                 ",
"              . . .                 @ @ @ | 1 2 : 3 4 5 6 7 8 : _ 9 0 = @ @         + + + + +                                   ",
"              . . .               @ @ @ a b < : c d e f g h i j k l m n o @ @     + + + + +                                     ",
"              . . .               @ @ p q 2 : r s t u v w x y z A B < C D @ o E + + + + +                                       ",
"              . . .               @ @ F G : H I J K + + + + + L M N _ O P @ o Q R + + +                                         ",
"              . . .             @ @ @ S T U V W X + + + + + + Y Z ` :  ...+.@ @.#.+                                             ",
"              . . .             @ @ @ q $.%.&.*.+ + =.-.;.+ + >.,.'.).!.~.{.@ ].^.                                              ",
"              . . .             @ @ @ /.f (.*.+ + _.:.<.[.+ + }.|.1.2.3.4.5.@ +.                                                ",
"              . . .             @ @ o 6.7.8.+ + 9.0.a.b.c.+ + d.e.f.g.=.h.].@ @                                                 ",
"              . . .               @ @ i.j.+ + k.l.m.n.o.X + p.q.r.s.c.+ ^.{.@ @                                                 ",
"              . . .               @ @ t.u.+ >.v.w.x.y.z.*.+ p.A.B.C.+ + D.@ @ @                                                 ",
"              . . .               E.@ @ F.G.H.I.6 3 J.K.8.+ + *.+ + + L.M.@ @ @                                                 ",
"              . . .               N.@ @ O.4.P.Q.l : R.S.T.+ + + + + U.V.W.@ @                                                   ",
"              . . .               ^.5.@ @ X.Y.Z.: : `. +.+++Y 8.>.@+#+$+@ @ @                                                   ",
"              . . .               %+D.&+@ @ *+=+< _ : 8 -+;+>+,+'+)+!+@ @ @ @ @ @                                               ",
"              . . . .           + + ~+{+o @ @ { ]+^+/+(+_+:+<+[+}+= @ @ @ @ @ @ @ @                                             ",
"              . . . .           + + +   |+@ @ @ 1+2+3+4+5+6+7+1+@ @ @ @ @ @ @ @ @ @ @                                           ",
"              . . . .           + + +       @ @ @ @ @ o @ @ @ @ @ @ @ @ @ @ @ @ @ @ @ @                                         ",
"              . . . .         + + + +         @ @ @ @ @ @ @ @ @ @     @ @ @ @ @ @ @ @ @ @ @                                     ",
"              . . . .         + + +                                     @ @ @ @ @ @ @ @ @ @ @                                   ",
"              . . . .         + + +                                         @ @ @ @ @ @ @ @ @ @                                 ",
"              . . . .         + + +                                           @ @ @ @ @ @ @ @ @ @                               ",
"              . . . .       + + + +                                             @ @ @ @ @ @ @ @ @ @                             ",
"              . . . .       + + +                                                 @ @ @ @ @ @ @ @ @ @ @                         ",
"              . . . .       + + +                                                     @ @ @ @ @ @ @ @ @                         ",
"              . . . .     + + + +                                                       @ @ @ @ @ @ @ @ @                       ",
"              . . . .     + + +                                                           @ @ @ @ @ @ @ @                       ",
"              . . . .     + + +                                                               @ @ @ @ @ @                       ",
"              . . . .     + + +                                                                     @ @                         ",
"              . . . .     + +                                                                                                   ",
"              . . . .                                                                                                           ",
"              . . . .                                                                                                           ",
"              . . . .                                                                                                           ",
"              . . . . . . . . . . . . . . . . . . . . . . . . . . . . . . . . . . . . . . . . . . . . . . . . .                 ",
"                . . . . . . . . . . . . . . . . . . . . . . . . . . . . . . . . . . . . . . . . . . . . . . . .                 ",
"                . . . . . . . . . . . . . . . . . . . . . . . . . . . . . . . . . . . . . . . . . . . . . . . .                 ",
"                                                                                                                                ",
"                                                                                                                                ",
"                                                                                                                                ",
"                                                                                                                                ",
"                                                                                                                                ",
"                                                                                                                                ",
"                                                                                                                                ",
"                                                                                                                                "};
