/* XPM */
static const char * pointPicker16_xpm[] = {
"16 16 28 1",
" 	c None",
".	c #000000",
"+	c #FF0000",
"@	c #730000",
"#	c #721618",
"$	c #712022",
"%	c #740000",
"&	c #6A757C",
"*	c #8AABB5",
"=	c #979AA3",
"-	c #6A8F98",
";	c #700A0B",
">	c #B86B71",
",	c #939FA8",
"'	c #880000",
")	c #6F0303",
"!	c #FF0102",
"~	c #A28289",
"{	c #F31B1C",
"]	c #830000",
"^	c #B80000",
"/	c #7C3538",
"(	c #6AD3DF",
"_	c #CC4A4F",
":	c #AB0C0D",
"<	c #710000",
"[	c #6F0302",
"}	c #720000",
"                ",
"                ",
"  .             ",
"  .         +   ",
"  .  @#$%   +   ",
"  . @&*=-@++    ",
"  . ;>++,'      ",
"  . )!~+{]      ",
"  . ^/(_:<      ",
"  . + @[}@@     ",
"  .       @@    ",
"  .+       @@   ",
"  .             ",
"  ............  ",
"                ",
"                "};
