/* XPM */
static const char * pointPicker32_xpm[] = {
"32 32 73 1",
" 	c None",
".	c #000000",
"+	c #FF0000",
"@	c #730000",
"#	c #721A1B",
"$	c #6E5A5F",
"%	c #6D646A",
"&	c #703235",
"*	c #6D777D",
"=	c #67D5E2",
"-	c #67D6E2",
";	c #68D3E0",
">	c #67DBE7",
",	c #6AA5AF",
"'	c #720B0B",
")	c #6C757C",
"!	c #69D5E1",
"~	c #989097",
"{	c #D04144",
"]	c #DD3032",
"^	c #B4696F",
"/	c #6DCCD8",
"(	c #6AA1AB",
"_	c #800000",
":	c #6BCAD6",
"<	c #BD5B61",
"[	c #FD0202",
"}	c #988F97",
"|	c #75C4D0",
"1	c #8C0506",
"2	c #7D0000",
"3	c #FE0000",
"4	c #70282A",
"5	c #B9666C",
"6	c #EC1A1B",
"7	c #FD0203",
"8	c #9C8992",
"9	c #B8656B",
"0	c #AC0102",
"a	c #750000",
"b	c #7B0C0C",
"c	c #FD0607",
"d	c #B26A71",
"e	c #F40E0E",
"f	c #B36B70",
"g	c #FC0606",
"h	c #B10000",
"i	c #720000",
"j	c #710000",
"k	c #EB0000",
"l	c #E2282A",
"m	c #70C6D2",
"n	c #B3696E",
"o	c #FC0404",
"p	c #830101",
"q	c #CF0000",
"r	c #960101",
"s	c #87A7B1",
"t	c #67D4E0",
"u	c #84ABB5",
"v	c #F11213",
"w	c #FF0304",
"x	c #B10D0E",
"y	c #AD0000",
"z	c #702F32",
"A	c #69B4BE",
"B	c #67D5E1",
"C	c #80B4BE",
"D	c #A76167",
"E	c #8A2223",
"F	c #6F0000",
"G	c #720F10",
"H	c #711415",
"                                ",
"                                ",
"                                ",
"    .                           ",
"    .                           ",
"    .                           ",
"    .                    ++     ",
"    .                   +++     ",
"    .       @@@@@       ++      ",
"    .     @@#$%&@@     ++       ",
"    .    @@*=-;>,'@  +++        ",
"    .    @)!~{]^/(@_+++         ",
"    .   @':<[+++}|123           ",
"    .   @45++67+890a            ",
"    .   @bc+{d+efghi            ",
"    .   @jklmn+o[+p@            ",
"    .   qirstuv+wxj@            ",
"    .   +yjzABCDEj@@@           ",
"    .   ++F@@GHj@@@@@@          ",
"    .   +   @@@@  @@@@@         ",
"    .  ++          @@@@@        ",
"    .  ++           @@@@@@      ",
"    .  +              @@@@      ",
"    . ++               @@@      ",
"    . ++                        ",
"    .                           ",
"    .......................     ",
"    ........................    ",
"                                ",
"                                ",
"                                ",
"                                "};
