/* XPM */
static const char * pointPicker24_xpm[] = {
"24 24 60 1",
" 	c None",
".	c #000000",
"+	c #FF0000",
"@	c #730404",
"#	c #720B0B",
"$	c #730606",
"%	c #730000",
"&	c #740000",
"*	c #712A2C",
"=	c #69848B",
"-	c #66A8B2",
";	c #68939C",
">	c #704044",
",	c #71292B",
"'	c #67BFCA",
")	c #96939B",
"!	c #C84E52",
"~	c #AD747B",
"{	c #6AC4CF",
"]	c #6E3F43",
"^	c #7A0000",
"/	c #730102",
"(	c #716B72",
"_	c #BB5F65",
":	c #9397A0",
"<	c #886168",
"[	c #7E0000",
"}	c #A92B2E",
"|	c #E72224",
"1	c #E62325",
"2	c #FC0303",
"3	c #AC747B",
"4	c #CD1718",
"5	c #7B0000",
"6	c #710000",
"7	c #B00000",
"8	c #EC181A",
"9	c #83ACB6",
"0	c #DD2F31",
"a	c #FC0404",
"b	c #F60F0F",
"c	c #C90000",
"d	c #750000",
"e	c #C30000",
"f	c #830000",
"g	c #857F87",
"h	c #68D1DD",
"i	c #B07076",
"j	c #F31011",
"k	c #E4090A",
"l	c #880606",
"m	c #720000",
"n	c #FC0000",
"o	c #9D0000",
"p	c #6F0F10",
"q	c #6E5A5F",
"r	c #6F7379",
"s	c #853C3F",
"t	c #780D0D",
"u	c #730202",
"                        ",
"                        ",
"   .                    ",
"   .                    ",
"   .               +    ",
"   .              ++    ",
"   .     @#$%     +     ",
"   .   &*=-;>%  ++      ",
"   .   ,')!~{]^++       ",
"   .  /(_+++:<[+        ",
"   .  @}+|12345         ",
"   .  67890abcd         ",
"   .  efghijklm         ",
"   .  nopqrst6%%        ",
"   .  +  %um %%%%       ",
"   . ++       %%%%      ",
"   . +          %%%     ",
"   . +           %%%    ",
"   . +                  ",
"   .                    ",
"   ..................   ",
"                        ",
"                        ",
"                        "};
